<svg width="24" height="32" viewBox="0 0 24 32" fill="none" xmlns="http://www.w3.org/2000/svg">
<path opacity="0.6" d="M2.2143 5H21.7857C22.1078 5 22.4166 5.12793 22.6443 5.35566C22.8721 5.58338 23 5.89225 23 6.2143V25.7857C23 25.9452 22.9686 26.1032 22.9075 26.2506C22.8464 26.398 22.7569 26.5319 22.644 26.6446C22.5312 26.7574 22.3972 26.8468 22.2498 26.9078C22.1024 26.9688 21.9444 27.0001 21.7848 27H16.1895V18.4924H19.0576L19.4873 15.1623L16.1895 15.1621V13.0414C16.1895 12.0793 16.4559 11.424 17.836 11.424H19.584V8.45361C19.5185 8.44526 19.4185 8.43386 19.2896 8.42213C19.1406 8.40844 18.953 8.39359 18.7359 8.3797C18.2714 8.34981 17.6715 8.32406 17.023 8.32406C14.4875 8.32406 12.752 9.87137 12.752 12.7129V15.1621H9.89453V18.4922L12.752 18.4924V27H2.2143C1.89225 27 1.58338 26.8721 1.35566 26.6443C1.12793 26.4166 1 26.1078 1 25.7857V6.2143C1 5.89225 1.12793 5.58338 1.35566 5.35566C1.58338 5.12793 1.89225 5 2.2143 5Z" fill="black"/>
</svg>
