<svg width="26" height="32" viewBox="0 0 26 32" fill="none" xmlns="http://www.w3.org/2000/svg">
<path opacity="0.6" d="M9.00096 16C9.00096 13.7909 10.7913 11.9997 13.0005 11.9997C15.2096 11.9997 17.001 13.7909 17.001 16C17.001 18.2091 15.2096 20.0003 13.0005 20.0003C10.7913 20.0003 9.00096 18.2091 9.00096 16ZM6.83838 16C6.83838 19.4032 9.59714 22.1619 13.0005 22.1619C16.4038 22.1619 19.1626 19.4032 19.1626 16C19.1626 12.5968 16.4038 9.83814 13.0005 9.83814C9.59714 9.83814 6.83838 12.5968 6.83838 16ZM17.9665 9.59382C17.9662 10.3891 18.6106 11.0341 19.406 11.0344C20.2013 11.0347 20.8463 10.3903 20.8466 9.59498C20.8469 8.79969 20.2024 8.15472 19.4071 8.1544C18.6122 8.15477 17.9672 8.79891 17.9665 9.59382ZM8.15229 25.7677C6.98229 25.7144 6.34636 25.5196 5.92375 25.3549C5.36347 25.1368 4.96371 24.877 4.54341 24.4573C4.1231 24.0376 3.86293 23.6382 3.64577 23.078C3.48103 22.6556 3.28614 22.0195 3.23295 20.8495C3.17477 19.5846 3.16316 19.2047 3.16316 16.0001C3.16316 12.7955 3.17574 12.4166 3.23295 11.1507C3.28624 9.9807 3.48256 9.34586 3.64577 8.92221C3.86389 8.36195 4.12368 7.96221 4.54341 7.54192C4.96313 7.12163 5.36251 6.86147 5.92375 6.64432C6.34617 6.47958 6.98229 6.2847 8.15229 6.23152C9.41723 6.17334 9.79722 6.16173 13.0005 6.16173C16.2037 6.16173 16.5841 6.1743 17.8501 6.23152C19.0201 6.2848 19.655 6.48112 20.0787 6.64432C20.6389 6.86147 21.0387 7.12221 21.459 7.54192C21.8793 7.96163 22.1385 8.36195 22.3566 8.92221C22.5214 9.34461 22.7163 9.9807 22.7694 11.1507C22.8276 12.4166 22.8392 12.7955 22.8392 16.0001C22.8392 19.2047 22.8276 19.5836 22.7694 20.8495C22.7162 22.0195 22.5203 22.6554 22.3566 23.078C22.1385 23.6382 21.8787 24.038 21.459 24.4573C21.0393 24.8766 20.6389 25.1368 20.0787 25.3549C19.6562 25.5196 19.0201 25.7145 17.8501 25.7677C16.5852 25.8259 16.2052 25.8375 13.0005 25.8375C9.79578 25.8375 9.41685 25.8259 8.15229 25.7677ZM8.05292 4.07267C6.7754 4.13085 5.90244 4.33341 5.14007 4.63005C4.35053 4.93638 3.68216 5.34736 3.01426 6.01418C2.34636 6.68099 1.93642 7.3504 1.63007 8.1399C1.33342 8.90272 1.13085 9.77517 1.07267 11.0526C1.01354 12.3321 1 12.7412 1 16C1 19.2588 1.01354 19.6679 1.07267 20.9474C1.13085 22.2249 1.33342 23.0973 1.63007 23.8601C1.93642 24.6491 2.34645 25.3193 3.01426 25.9858C3.68206 26.6524 4.35053 27.0628 5.14007 27.37C5.90388 27.6666 6.7754 27.8692 8.05292 27.9273C9.33313 27.9855 9.74153 28 13.0005 28C16.2594 28 16.6685 27.9865 17.948 27.9273C19.2257 27.8692 20.098 27.6666 20.8609 27.37C21.6499 27.0628 22.3188 26.6526 22.9867 25.9858C23.6546 25.319 24.0637 24.6491 24.3709 23.8601C24.6675 23.0973 24.8711 22.2248 24.9283 20.9474C24.9865 19.6669 25 19.2588 25 16C25 12.7412 24.9865 12.3321 24.9283 11.0526C24.8701 9.77507 24.6675 8.90224 24.3709 8.1399C24.0637 7.35088 23.6535 6.68205 22.9867 6.01418C22.3199 5.3463 21.6499 4.93638 20.8619 4.63005C20.098 4.33341 19.2256 4.12989 17.949 4.07267C16.6695 4.0145 16.2604 4 13.0014 4C9.74249 4 9.33313 4.01354 8.05292 4.07267Z" fill="black"/>
</svg>
