<svg width="24" height="32" viewBox="0 0 24 32" fill="none" xmlns="http://www.w3.org/2000/svg">
<path opacity="0.6" d="M12.0004 5C5.92537 5 1 9.9248 1 15.9999C1 20.5041 3.70857 24.3735 7.58441 26.0748C7.55347 25.3067 7.57887 24.3847 7.77588 23.5489C7.98735 22.6559 9.19132 17.5551 9.19132 17.5551C9.19132 17.5551 8.83983 16.8529 8.83983 15.8147C8.83983 14.1847 9.78473 12.9673 10.9613 12.9673C11.9619 12.9673 12.4453 13.7188 12.4453 14.6186C12.4453 15.6244 11.8038 17.1289 11.4738 18.5223C11.1982 19.6892 12.0589 20.6409 13.21 20.6409C15.2942 20.6409 16.6979 17.9641 16.6979 14.7926C16.6979 12.3818 15.0741 10.5773 12.1207 10.5773C8.78393 10.5773 6.70515 13.0656 6.70515 15.8451C6.70515 16.8034 6.98773 17.4793 7.43031 18.0025C7.63384 18.2429 7.66212 18.3397 7.58842 18.6157C7.53568 18.818 7.41447 19.3053 7.36433 19.4984C7.29106 19.777 7.06537 19.8766 6.81356 19.7737C5.27666 19.1463 4.56083 17.4633 4.56083 15.5713C4.56083 12.4466 7.19619 8.69983 12.4226 8.69983C16.6224 8.69983 19.3865 11.7388 19.3865 15.0011C19.3865 19.3161 16.9875 22.5398 13.4512 22.5398C12.2636 22.5398 11.1464 21.8978 10.7638 21.1688C10.7638 21.1688 10.1252 23.7031 9.98991 24.1926C9.75675 25.0407 9.3002 25.8882 8.88278 26.5489C9.87213 26.841 10.9172 27 12.0004 27C18.0748 27 23 22.0751 23 15.9999C23 9.9248 18.0748 5 12.0004 5Z" fill="black"/>
</svg>
