<svg width="26" height="32" viewBox="0 0 26 32" fill="none" xmlns="http://www.w3.org/2000/svg">
<path opacity="0.6" d="M25 8.36757C24.117 8.77045 23.1662 9.03904 22.1716 9.16339C23.1904 8.53668 23.9666 7.54688 24.3354 6.37304C23.3845 6.94504 22.3317 7.36782 21.211 7.59164C20.3135 6.61179 19.0327 6 17.6161 6C14.8945 6 12.6919 8.25814 12.6919 11.0485C12.6919 11.4464 12.7356 11.8294 12.8181 12.1975C8.72832 11.9886 5.09945 9.97911 2.66889 6.92514C2.24682 7.67123 2.00425 8.53668 2.00425 9.46183C2.00425 11.2126 2.87265 12.7595 4.19224 13.6648C3.3869 13.6399 2.62523 13.4111 1.96058 13.0331C1.96058 13.053 1.96058 13.0729 1.96058 13.0977C1.96058 15.5449 3.65858 17.5842 5.90964 18.0468C5.49727 18.1612 5.06064 18.2258 4.61431 18.2258C4.29897 18.2258 3.98848 18.196 3.68769 18.1363C4.31352 20.1408 6.13281 21.6031 8.28684 21.6429C6.6034 22.9958 4.47847 23.8015 2.17404 23.8015C1.77623 23.8015 1.38326 23.7767 1 23.7319C3.17829 25.1644 5.76895 26 8.54882 26C17.6064 26 22.5597 18.3104 22.5597 11.6354C22.5597 11.4166 22.5549 11.1977 22.5452 10.9838C23.5058 10.2676 24.3402 9.37727 25 8.36757Z" fill="black"/>
</svg>
