<svg width="30" height="32" viewBox="0 0 30 32" fill="none" xmlns="http://www.w3.org/2000/svg">
<path opacity="0.6" fill-rule="evenodd" clip-rule="evenodd" d="M27.479 7.76738C27.9141 8.19845 28.2277 8.73481 28.3888 9.32317C28.9825 11.4952 29 16 29 16C29 16 29 20.5226 28.4072 22.6772C28.2461 23.2656 27.9324 23.802 27.4973 24.233C27.0622 24.6641 26.5209 24.9749 25.927 25.1345C23.7522 25.7222 15 25.7222 15 25.7222C15 25.7222 6.24781 25.7222 4.07344 25.134C3.47957 24.9744 2.9382 24.6637 2.5031 24.2326C2.068 23.8015 1.75433 23.2652 1.59325 22.6768C1 20.5048 1 16 1 16C1 16 1 11.4952 1.57531 9.34051C1.73639 8.75215 2.05006 8.21578 2.48516 7.78472C2.92026 7.35365 3.46164 7.04288 4.0555 6.8833C6.23031 6.29511 14.9825 6.27777 14.9825 6.27777C14.9825 6.27777 23.7342 6.27777 25.9086 6.86596C26.5025 7.02554 27.0439 7.33631 27.479 7.76738ZM19.6665 16.0009L12.6669 20.2786L12.6665 11.7231L19.6665 16.0009Z" fill="black"/>
</svg>
