<svg xmlns="http://www.w3.org/2000/svg" width="26" height="32" fill="none" viewBox="0 0 26 32"><path fill="#000" d="M9 16a4 4 0 1 1 8 0 4 4 0 0 1-8 0Zm-2.16 0a6.16 6.16 0 1 0 12.32 0 6.16 6.16 0 0 0-12.32 0Zm11.13-6.4a1.44 1.44 0 1 0 2.88 0 1.44 1.44 0 0 0-2.88 0ZM8.15 25.76a6.63 6.63 0 0 1-2.23-.42 3.73 3.73 0 0 1-1.38-.9 3.7 3.7 0 0 1-.9-1.37 6.63 6.63 0 0 1-.4-2.23A82.91 82.91 0 0 1 3.15 16c0-3.2.02-3.58.07-4.85.06-1.17.25-1.8.42-2.23.21-.56.47-.96.9-1.38a3.7 3.7 0 0 1 1.37-.9 6.63 6.63 0 0 1 2.23-.4c1.27-.07 1.65-.08 4.85-.08 3.2 0 3.58.01 4.85.07 1.17.05 1.8.25 2.23.41.56.22.96.48 1.38.9.42.42.68.82.9 1.38.16.42.36 1.06.4 2.23.07 1.27.08 1.65.08 4.85 0 3.2-.01 3.58-.07 4.85a6.65 6.65 0 0 1-.41 2.23c-.22.56-.48.96-.9 1.38-.42.42-.82.68-1.38.9-.42.16-1.06.35-2.23.4a82.9 82.9 0 0 1-4.85.08c-3.2 0-3.58-.01-4.85-.07Zm-.1-21.7a8.8 8.8 0 0 0-2.91.56c-.79.3-1.46.72-2.13 1.38a5.86 5.86 0 0 0-1.38 2.13 8.8 8.8 0 0 0-.56 2.91A84.23 84.23 0 0 0 1 16c0 3.26.01 3.67.07 4.95a8.8 8.8 0 0 0 .56 2.91c.3.79.72 1.46 1.38 2.13a5.9 5.9 0 0 0 2.13 1.38c.76.3 1.64.5 2.91.56 1.28.06 1.7.07 4.95.07 3.26 0 3.67-.01 4.95-.07a8.8 8.8 0 0 0 2.91-.56A5.9 5.9 0 0 0 23 25.99a5.88 5.88 0 0 0 1.38-2.13c.3-.76.5-1.64.56-2.91.06-1.28.07-1.7.07-4.95 0-3.26-.01-3.67-.07-4.95a8.8 8.8 0 0 0-.56-2.91A5.9 5.9 0 0 0 23 6.01a5.87 5.87 0 0 0-2.13-1.38c-.76-.3-1.63-.5-2.91-.56A85.16 85.16 0 0 0 13 4c-3.26 0-3.67.01-4.95.07Z" opacity=".6"/></svg>