<svg xmlns="http://www.w3.org/2000/svg" width="26" height="32" fill="none" viewBox="0 0 26 32"><path fill="#000" d="M25 8.37a9.7 9.7 0 0 1-2.83.8 5.05 5.05 0 0 0 2.17-2.8c-.96.58-2 1-3.13 1.22A4.86 4.86 0 0 0 17.61 6a4.98 4.98 0 0 0-4.8 6.2A13.87 13.87 0 0 1 2.68 6.93a5.14 5.14 0 0 0 1.52 6.73 4.81 4.81 0 0 1-2.23-.63v.07c0 2.44 1.7 4.48 3.95 4.95a4.85 4.85 0 0 1-2.22.09c.62 2 2.44 3.46 4.6 3.5A9.73 9.73 0 0 1 1 23.74 13.7 13.7 0 0 0 8.55 26c9.06 0 14.01-7.69 14.01-14.36l-.01-.66c.96-.71 1.79-1.6 2.45-2.61Z" opacity=".6"/></svg>